<?xml version="1.0" encoding="utf-8"?>
<!-- Generator: Adobe Illustrator 26.5.0, SVG Export Plug-In . SVG Version: 6.00 Build 0)  -->
<svg version="1.1" id="Слой_1" xmlns="http://www.w3.org/2000/svg" xmlns:xlink="http://www.w3.org/1999/xlink" x="0px" y="0px"
	 viewBox="0 0 227.2 250" style="enable-background:new 0 0 227.2 250;" xml:space="preserve">
<style type="text/css">
	.st0{fill:#FFFFFF;}
	.st1{fill:#06A57E;}
	.st2{fill:#004030;}
	.st3{fill:#CCF3EA;}
	.st4{fill:#CC957F;}
	.st5{fill:#FF5C80;}
	.st6{fill:#FFC3A8;}
	.st7{fill:#F9C7D0;}
	.st8{fill:#FF6639;}
</style>
<path class="st0" d="M171.2,223l7.9-33c0.2-0.7,0.2-1.5,0-2.2c-0.2-0.7-0.5-1.4-1-2c-0.5-0.6-1.1-1.1-1.7-1.4
	c-0.7-0.3-1.4-0.5-2.2-0.5H75.7c-0.8,0-1.5,0.2-2.2,0.5c-0.7,0.3-1.3,0.8-1.7,1.4c-0.5,0.6-0.8,1.3-1,2c-0.2,0.7-0.2,1.5,0,2.2
	l12.3,51.7v0.1v8.5H70.9c1.9,0.1,3.7-0.6,5-1.8c1.4-1.2,2.2-3,2.3-4.9c0.1-1.9-0.6-3.7-1.8-5c-1.2-1.4-3-2.2-4.9-2.3v-5.5
	c0-2.2-0.6-4.4-1.9-6.3c-1.2-1.9-3-3.3-5.1-4.2c-2.1-0.9-4.3-1.1-6.5-0.7c-2.2,0.4-4.2,1.5-5.8,3.1l-0.2,0.2v-17.2
	c0-10.5,4.2-20.6,11.6-28c7.4-7.4,17.5-11.6,28-11.6H110c0,3.6,1.4,7.1,4,9.7c2.6,2.6,6,4,9.7,4h4.1c3.6,0,7.1-1.4,9.7-4
	c2.6-2.6,4-6,4-9.7h21c7.6,0,14.8,3,20.1,8.4l20.1,20.1l17.9,17.9c14,14,4.1,37.9-15.7,37.9h-38.2v-8.5L171.2,223z"/>
<path class="st1" d="M174.2,183.9c0.8,0,1.5,0.2,2.2,0.5c0.7,0.3,1.3,0.8,1.7,1.4c0.5,0.6,0.8,1.3,1,2c0.2,0.7,0.2,1.5,0,2.2
	l-7.9,33l-4.5,18.9H83.2v-0.1L70.9,190c-0.2-0.7-0.2-1.5,0-2.2c0.2-0.7,0.5-1.4,1-2c0.5-0.6,1.1-1.1,1.7-1.4
	c0.7-0.3,1.4-0.5,2.2-0.5H174.2z M130.6,209.1c0-1.1-0.3-2.2-1-3.2c-0.6-0.9-1.5-1.7-2.6-2.1c-1-0.4-2.2-0.5-3.3-0.3
	c-1.1,0.2-2.1,0.8-2.9,1.6c-0.8,0.8-1.3,1.8-1.6,2.9c-0.2,1.1-0.1,2.2,0.3,3.3c0.4,1,1.2,1.9,2.1,2.6c0.9,0.6,2,1,3.2,1
	c1.5,0,3-0.6,4-1.7C130,212,130.6,210.6,130.6,209.1z"/>
<path class="st1" d="M166.7,241.9v8.5H83.2v-8.5H166.7z M99.1,248.1v-3.3h-3.3v3.3H99.1z M90.9,246.4c0-0.3-0.1-0.7-0.3-1
	c-0.2-0.3-0.5-0.5-0.8-0.6c-0.3-0.1-0.7-0.2-1-0.1s-0.6,0.2-0.9,0.5c-0.2,0.2-0.4,0.5-0.5,0.9c-0.1,0.3,0,0.7,0.1,1
	c0.1,0.3,0.4,0.6,0.6,0.8c0.3,0.2,0.6,0.3,1,0.3c0.2,0,0.5,0,0.7-0.1c0.2-0.1,0.4-0.2,0.6-0.4c0.2-0.2,0.3-0.3,0.4-0.6
	C90.9,246.9,90.9,246.7,90.9,246.4L90.9,246.4z"/>
<path class="st2" d="M151.9,145.9v-14.1h7c0.2,0,0.4,0.1,0.6,0.2c0.2,0.2,0.2,0.4,0.2,0.6v14.7c0,0.2-0.1,0.4-0.2,0.6
	c-0.2,0.2-0.4,0.2-0.6,0.2h-7V145.9z"/>
<path class="st0" d="M139.5,112.8c-0.2,0-0.5,0-0.8,0h-26c-0.2,0-0.5,0-0.8,0c-3.5,0.2-6.8,1.7-9.2,4.3c-2.4,2.5-3.8,5.9-3.8,9.4
	v5.3h-3.6v-5.3c0-4.6,1.8-9,5.1-12.3s7.7-5.1,12.3-5.1h26c4.6,0,9,1.8,12.3,5.1c3.3,3.3,5.1,7.7,5.1,12.3v5.3h-3.6v-5.3
	c0-3.5-1.3-6.9-3.8-9.4C146.3,114.5,143,113,139.5,112.8z"/>
<path d="M152.5,129.7v1.1c-0.6,0.1-1.2,0.3-1.6,0.8c-0.4,0.4-0.6,1-0.6,1.6v3.5h-5.6v-13.6c0-0.2,0-0.3-0.1-0.4
	c-0.1-0.1-0.2-0.2-0.3-0.3s-0.3-0.1-0.4-0.1c-0.2,0-0.3,0.1-0.4,0.1c-5,3.3-10.8,5.1-16.8,5c-6.5-0.1-12.9-1.9-18.6-5.2
	c-0.1-0.1-0.3-0.1-0.4-0.1c-0.1,0-0.3,0-0.4,0.1c-0.1,0.1-0.2,0.2-0.3,0.3c-0.1,0.1-0.1,0.3-0.1,0.4v14h-5.6v-4
	c0-0.6-0.2-1.1-0.6-1.5c-0.4-0.4-0.9-0.7-1.5-0.8v-1c0.9-3.5,2.6-6.9,4.8-9.8c2.2-2.9,5-5.3,8.2-7.1c0.2,0,0.5,0,0.8,0h26
	c0.2,0,0.5,0,0.8,0c3.2,1.8,5.9,4.3,8.1,7.2C150,122.9,151.6,126.2,152.5,129.7z"/>
<path class="st3" d="M134.9,166.1h6.6c0,3.6-1.4,7-3.9,9.6l-4.8-4.8C134.1,169.6,134.8,167.9,134.9,166.1z"/>
<path class="st3" d="M137.6,175.7c-1.3,1.3-2.8,2.4-4.5,3.1c-1.7,0.7-3.5,1.1-5.3,1.1h-2v-6.6h1.5c1,0,2-0.2,3-0.6
	c0.9-0.4,1.8-1,2.5-1.7L137.6,175.7z"/>
<path class="st4" d="M116.6,166.1c0-0.2,0-0.3,0-0.5v-2.8c3,1,6.1,1.6,9.2,1.6c3.1,0,6.2-0.5,9.1-1.6v2.8c0,0.2,0,0.3,0,0.5
	c-0.1,1.9-1,3.7-2.4,5c-1.4,1.3-3.3,2-5.2,2h-3.2c-1.9,0-3.8-0.7-5.2-2.1C117.6,169.9,116.8,168.1,116.6,166.1L116.6,166.1z"/>
<path d="M130.7,144.4c0,0.5,0.1,1,0.2,1.5h-0.1c-0.1,0.3-0.3,0.6-0.4,0.9c-0.6-0.1-1.2-0.2-1.8-0.2c-2,0-3.9,0.7-5.3,2.1
	c-0.4-0.2-0.8-0.5-1.2-0.9c-0.5-0.5-0.9-1.1-1.2-1.7c-0.3-0.6-0.4-1.3-0.4-2v-0.1h1.7v1.1c0,0.2,0.1,0.4,0.2,0.5
	c0.1,0.1,0.3,0.2,0.5,0.2h5.2c0.1,0,0.2,0,0.3-0.1c0.1,0,0.2-0.1,0.2-0.2c0.1-0.1,0.1-0.1,0.2-0.2c0-0.1,0.1-0.2,0.1-0.3v-1.1h1.8
	C130.7,144,130.7,144.2,130.7,144.4z"/>
<path class="st5" d="M130.4,146.8c-0.7,1.2-1.9,2-3.2,2.3c-1.3,0.3-2.7,0.2-3.9-0.5c1.4-1.3,3.3-2.1,5.3-2.1
	C129.2,146.6,129.8,146.6,130.4,146.8z"/>
<path d="M124.9,203.4c1.1,0,2.2,0.3,3.2,1c0.9,0.6,1.7,1.5,2.1,2.6c0.4,1,0.5,2.2,0.3,3.3c-0.2,1.1-0.8,2.1-1.6,2.9
	c-0.8,0.8-1.8,1.3-2.9,1.6c-1.1,0.2-2.2,0.1-3.3-0.3c-1-0.4-1.9-1.2-2.6-2.1c-0.6-0.9-1-2-1-3.2c0-1.5,0.6-3,1.7-4
	C122,204,123.4,203.4,124.9,203.4z"/>
<path class="st0" d="M128.9,143.9v1.1c0,0.1,0,0.2-0.1,0.3c0,0.1-0.1,0.2-0.2,0.2c-0.1,0.1-0.1,0.1-0.2,0.2c-0.1,0-0.2,0.1-0.3,0.1
	H123c-0.2,0-0.4-0.1-0.5-0.2c-0.1-0.1-0.2-0.3-0.2-0.5v-1.1H128.9z"/>
<path d="M128.1,139.4c0.2,0,0.4,0.1,0.5,0.2c0.2,0.1,0.3,0.2,0.3,0.4c0.1,0.2,0.1,0.4,0.1,0.5c0,0.2-0.1,0.3-0.3,0.5
	c-0.1,0.1-0.3,0.2-0.5,0.3c-0.2,0-0.4,0-0.5-0.1c-0.2-0.1-0.3-0.2-0.4-0.3c-0.1-0.2-0.2-0.3-0.2-0.5c0-0.2,0.1-0.5,0.3-0.6
	C127.6,139.5,127.8,139.4,128.1,139.4z"/>
<path class="st0" d="M128.1,141.8c-0.4,0-0.8-0.1-1.1-0.3c-0.3-0.2-0.6-0.5-0.7-0.9c-0.2-0.4-0.2-0.8-0.1-1.2c0.1-0.4,0.3-0.7,0.5-1
	c0.3-0.3,0.6-0.5,1-0.5c0.4-0.1,0.8,0,1.2,0.1c0.4,0.2,0.7,0.4,0.9,0.7s0.3,0.7,0.3,1.1c0,0.5-0.2,1-0.6,1.4
	S128.7,141.8,128.1,141.8z M127.1,140.3c0,0.2,0.1,0.4,0.2,0.5c0.1,0.2,0.2,0.3,0.4,0.3c0.2,0.1,0.4,0.1,0.5,0.1
	c0.2,0,0.3-0.1,0.5-0.3c0.1-0.1,0.2-0.3,0.3-0.5c0-0.2,0-0.4-0.1-0.5c-0.1-0.2-0.2-0.3-0.3-0.4c-0.2-0.1-0.3-0.2-0.5-0.2
	c-0.1,0-0.2,0-0.3,0.1c-0.1,0-0.2,0.1-0.3,0.2c-0.1,0.1-0.1,0.2-0.2,0.3C127.2,140.1,127.1,140.2,127.1,140.3L127.1,140.3z"/>
<path class="st6" d="M130.9,145.9c-0.1-0.5-0.2-1-0.2-1.5c0-0.1,0-0.3,0-0.5h-10.2v0.1c0,0.7,0.1,1.4,0.4,2c0.3,0.6,0.7,1.2,1.2,1.7
	c0.4,0.4,0.8,0.7,1.2,0.9c1.2,0.7,2.6,0.8,3.9,0.5c1.3-0.3,2.5-1.2,3.2-2.4C130.6,146.5,130.7,146.2,130.9,145.9L130.9,145.9z
	 M126,139.7c0-0.4-0.1-0.8-0.3-1.1c-0.2-0.3-0.5-0.6-0.9-0.7c-0.4-0.2-0.8-0.2-1.2-0.1c-0.4,0.1-0.7,0.3-1,0.5
	c-0.3,0.3-0.5,0.6-0.5,1c-0.1,0.4,0,0.8,0.1,1.2c0.2,0.4,0.4,0.7,0.7,0.9c0.3,0.2,0.7,0.3,1.1,0.3h0.2c0.1-0.2,0.2-0.3,0.3-0.5
	c0.2-0.1,0.3-0.2,0.5-0.2h1.6c0.3,0.3,0.7,0.6,1.2,0.6c0.5,0.1,0.9,0,1.3-0.3c0.4-0.2,0.7-0.6,0.8-1.1c0.1-0.4,0.1-0.9,0-1.4
	c-0.2-0.4-0.5-0.8-0.9-1c-0.4-0.2-0.9-0.3-1.3-0.2c-0.5,0.1-0.9,0.3-1.2,0.7c-0.3,0.4-0.5,0.8-0.5,1.3L126,139.7z M152.5,130.8v1
	h-0.6v14.1c-1.9,5.4-5.4,10.1-10.1,13.4c-4.7,3.3-10.2,5.1-16,5.1s-11.3-1.8-16-5.1c-4.7-3.3-8.2-8-10.1-13.4v-14.1h-0.6v-1.1
	c0.6,0.1,1.1,0.3,1.5,0.8c0.4,0.4,0.6,1,0.6,1.5v4h5.5v-14c0-0.1,0-0.3,0.1-0.4c0.1-0.1,0.2-0.2,0.3-0.3c0.1-0.1,0.3-0.1,0.4-0.1
	c0.1,0,0.3,0,0.4,0.1c5.6,3.3,12,5.1,18.6,5.2c6,0.1,11.8-1.7,16.8-5c0.1-0.1,0.3-0.1,0.4-0.1c0.2,0,0.3,0,0.4,0.1s0.2,0.2,0.3,0.3
	c0.1,0.1,0.1,0.3,0.1,0.4v13.6h5.6v-3.6c0-0.6,0.2-1.2,0.6-1.6S151.9,130.9,152.5,130.8L152.5,130.8z"/>
<path class="st6" d="M126.1,139.7c0,0.5,0.2,1,0.5,1.4h-1.2C125.8,140.7,126,140.3,126.1,139.7L126.1,139.7z"/>
<path class="st3" d="M125.9,173.2v6.6h-2.2c-1.8,0-3.6-0.4-5.3-1.1c-1.7-0.7-3.2-1.8-4.5-3.1l4.8-4.8c0.7,0.7,1.6,1.3,2.5,1.7
	c0.9,0.4,2,0.6,3,0.6H125.9z"/>
<path d="M123.9,141.1c0.5,0,0.9-0.4,0.9-0.9s-0.4-0.9-0.9-0.9c-0.5,0-0.9,0.4-0.9,0.9S123.4,141.1,123.9,141.1z"/>
<path class="st0" d="M123,140.2c0,0.2,0.1,0.4,0.2,0.5c0.1,0.2,0.2,0.3,0.4,0.3s0.4,0.1,0.5,0.1c0.2,0,0.3-0.1,0.5-0.3
	c0.1-0.1,0.2-0.3,0.2-0.5c0-0.2,0-0.4-0.1-0.5c-0.1-0.2-0.2-0.3-0.3-0.4c-0.2-0.1-0.3-0.2-0.5-0.1c-0.2,0-0.5,0.1-0.6,0.3
	C123.1,139.7,123,140,123,140.2z M124.2,141.8H124c-0.5,0-0.9-0.2-1.3-0.5c-0.4-0.3-0.6-0.7-0.7-1.1c-0.1-0.5,0-0.9,0.2-1.3
	c0.2-0.4,0.6-0.7,1-0.9c0.4-0.2,0.9-0.2,1.3-0.1c0.4,0.1,0.8,0.4,1.1,0.8s0.4,0.8,0.4,1.3c0,0.5-0.2,0.9-0.5,1.2H125
	c-0.2,0-0.4,0.1-0.5,0.2S124.2,141.6,124.2,141.8L124.2,141.8z"/>
<path class="st3" d="M118.7,170.9l-4.8,4.8c-2.5-2.6-3.9-6-3.9-9.6h6.6C116.7,167.9,117.5,169.6,118.7,170.9z"/>
<path class="st2" d="M99.7,145.9v2.3h-7c-0.2,0-0.4-0.1-0.6-0.2c-0.2-0.2-0.2-0.4-0.2-0.6v-14.8c0-0.2,0.1-0.4,0.2-0.6
	c0.2-0.2,0.4-0.2,0.6-0.2h7V145.9z"/>
<path d="M99.1,244.8h-3.3v3.3h3.3V244.8z"/>
<path d="M89.2,244.7c0.3,0,0.7,0.1,0.9,0.3s0.5,0.5,0.6,0.8c0.1,0.3,0.2,0.7,0.1,1c-0.1,0.3-0.2,0.6-0.5,0.9
	c-0.2,0.2-0.5,0.4-0.9,0.5c-0.3,0.1-0.7,0-1-0.1c-0.3-0.1-0.6-0.3-0.8-0.6c-0.2-0.3-0.3-0.6-0.3-0.9c0-0.2,0-0.4,0.1-0.7
	c0.1-0.2,0.2-0.4,0.4-0.6c0.2-0.2,0.3-0.3,0.6-0.4C88.8,244.8,89,244.7,89.2,244.7z"/>
<path class="st6" d="M71.6,236.4c1.9,0.1,3.6,0.9,4.9,2.3c1.2,1.4,1.9,3.2,1.8,5c-0.1,1.9-0.9,3.6-2.3,4.9c-1.4,1.2-3.2,1.9-5,1.8
	h-6.3c-1.7,0-3.4-0.6-4.7-1.7c-1.3-1.1-2.1-2.7-2.3-4.4c0-0.3-0.1-0.6-0.1-0.9c0-1.9,0.7-3.6,2.1-4.9c1.3-1.3,3.1-2.1,4.9-2.1h6.3
	C71.2,236.3,71.4,236.3,71.6,236.4z M64.3,244.6v-1.8c0-0.2,0-0.4-0.1-0.6c-0.1-0.2-0.2-0.4-0.4-0.6c-0.3-0.3-0.8-0.5-1.2-0.5
	c-0.4,0-0.7,0.1-1,0.4c-0.3,0.3-0.4,0.6-0.4,1v2.4c0,0.4,0.1,0.7,0.4,1c0.3,0.3,0.6,0.4,1,0.4c0.2,0,0.4,0,0.6-0.1
	c0.2-0.1,0.4-0.2,0.5-0.4c0.2-0.2,0.3-0.3,0.4-0.5S64.3,244.8,64.3,244.6z"/>
<path class="st1" d="M64.6,250.4H34.5v-1c0-0.2,0-0.5,0-0.7H60C61.3,249.8,63,250.4,64.6,250.4z"/>
<path class="st7" d="M64.3,242.8v1.8c0,0.4-0.2,0.9-0.5,1.2c-0.3,0.3-0.7,0.5-1.2,0.5c-0.4,0-0.7-0.1-1-0.4c-0.3-0.3-0.4-0.6-0.4-1
	v-2.4c0-0.4,0.1-0.7,0.4-1c0.3-0.3,0.6-0.4,1-0.4c0.4,0,0.9,0.2,1.2,0.5c0.2,0.2,0.3,0.3,0.4,0.6C64.2,242.4,64.3,242.6,64.3,242.8z
	"/>
<path class="st2" d="M60.1,248.7h-9.4v-5.9c0.9,0.9,2,1.6,3.3,1.8c1.3,0.3,2.6,0.1,3.7-0.4C57.9,245.9,58.8,247.5,60.1,248.7z"/>
<path class="st7" d="M55.9,239.8c0,0.2,0,0.4-0.1,0.5c-0.1,0.2-0.2,0.3-0.3,0.4c-0.1,0.1-0.3,0.2-0.4,0.3c-0.2,0.1-0.3,0.1-0.5,0.1
	h-2.4c-0.4,0-0.7-0.1-1-0.4c-0.3-0.3-0.4-0.6-0.4-1c0-0.4,0.2-0.9,0.5-1.2s0.7-0.5,1.2-0.5h1.8c0.4,0,0.9,0.2,1.2,0.5
	C55.7,238.9,55.9,239.3,55.9,239.8z"/>
<path class="st6" d="M37.4,236.4v-1.2c0-2.9,1.2-5.7,3.2-7.8s4.9-3.2,7.8-3.2h2.8c-1.4,1.9-2.1,4.2-2.1,6.6v7.8
	c0,1.4,0.4,2.7,1.3,3.8c-0.6,1.1-1.4,2-2.5,2.6c-1,0.6-2.2,1-3.5,1c-1.2,0-2.4-0.3-3.5-0.9c-1.1-0.6-2-1.5-2.6-2.5
	c-0.6-1.1-0.9-2.3-0.9-3.5L37.4,236.4z M43.8,242.4c0.2,0,0.4,0,0.5-0.1c0.2-0.1,0.3-0.2,0.4-0.3c0.1-0.1,0.2-0.3,0.3-0.4
	c0.1-0.2,0.1-0.3,0.1-0.5c0-0.2,0-0.4-0.1-0.6c-0.1-0.2-0.2-0.4-0.4-0.5c-0.2-0.2-0.3-0.3-0.5-0.4c-0.2-0.1-0.4-0.1-0.6-0.1h-1.8
	c-0.4,0-0.9,0.2-1.2,0.5c-0.2,0.2-0.3,0.3-0.4,0.6c-0.1,0.2-0.1,0.4-0.1,0.7c0,0.4,0.1,0.7,0.4,1s0.6,0.4,1,0.4H43.8z"/>
<path class="st6" d="M50.4,242.3c-0.8-1.1-1.3-2.4-1.3-3.8v-7.8c0-2.4,0.7-4.7,2.1-6.6c0.3-0.4,0.6-0.8,1-1.2l0.2-0.2
	c1.6-1.6,3.6-2.6,5.8-3.1c2.2-0.4,4.5-0.2,6.5,0.7c2.1,0.9,3.8,2.3,5.1,4.2c1.2,1.9,1.9,4,1.9,6.3v5.5c-0.2,0-0.4,0-0.7,0h-6.3
	c-1.9,0-3.6,0.7-4.9,2.1c-1.3,1.3-2.1,3.1-2.1,4.9c0,0.3,0,0.6,0.1,0.9c-1.2,0.5-2.5,0.6-3.7,0.4s-2.4-0.9-3.2-1.8
	C50.6,242.7,50.5,242.5,50.4,242.3z M54.5,241.1c0.2,0,0.4,0,0.5-0.1c0.2-0.1,0.3-0.2,0.4-0.3c0.1-0.1,0.2-0.3,0.3-0.4
	c0.1-0.2,0.1-0.3,0.1-0.5c0-0.4-0.2-0.9-0.5-1.2c-0.3-0.3-0.7-0.5-1.2-0.5h-1.8c-0.4,0-0.9,0.2-1.2,0.5c-0.3,0.3-0.5,0.7-0.5,1.2
	c0,0.4,0.1,0.7,0.4,1c0.3,0.3,0.6,0.4,1,0.4H54.5z"/>
<path class="st2" d="M47.9,245c1-0.6,1.9-1.6,2.5-2.6c0.1,0.2,0.2,0.3,0.4,0.4v5.9H34.6c0.2-2.7,1.3-5.3,3.2-7.2
	c0.4,1,0.9,1.8,1.6,2.6c0.7,0.7,1.6,1.3,2.6,1.6c1,0.3,2,0.5,3,0.3C46,245.8,47,245.5,47.9,245z"/>
<path class="st7" d="M45.2,241c0,0.2,0,0.4-0.1,0.5c-0.1,0.2-0.2,0.3-0.3,0.4c-0.1,0.1-0.3,0.2-0.4,0.3c-0.2,0.1-0.3,0.1-0.5,0.1
	h-2.4c-0.4,0-0.7-0.1-1-0.4c-0.3-0.3-0.4-0.6-0.4-1c0-0.2,0-0.4,0.1-0.7c0.1-0.2,0.2-0.4,0.4-0.6c0.3-0.3,0.7-0.5,1.2-0.5h1.8
	c0.2,0,0.4,0,0.6,0.1c0.2,0.1,0.4,0.2,0.5,0.4c0.2,0.2,0.3,0.3,0.4,0.5C45.2,240.5,45.2,240.8,45.2,241z"/>
<path class="st6" d="M34.6,248.7c0,0.2,0,0.5,0,0.7v1h-7.5c-1.1,0-2.1-0.3-3-0.9c-0.9-0.6-1.5-1.5-1.9-2.5c-0.3-1-0.4-2.1-0.1-3.1
	c0.3-1,0.9-1.9,1.8-2.6l2,2c0.2,0.2,0.4,0.2,0.6,0.2c0.2,0,0.4-0.1,0.6-0.2c0.2-0.2,0.3-0.3,0.4-0.5c0.1-0.2,0.1-0.4,0.1-0.6
	c0-0.2,0-0.4-0.1-0.6c-0.1-0.2-0.2-0.4-0.4-0.5l-0.7-0.7h0.1c6.1-0.6,9.3-2.4,10.8-3.8v2.6c0,0.8,0.1,1.6,0.4,2.4
	C35.8,243.4,34.7,245.9,34.6,248.7z"/>
<path class="st7" d="M27.2,241c0.2,0.2,0.3,0.3,0.4,0.5c0.1,0.2,0.1,0.4,0.1,0.6c0,0.2,0,0.4-0.1,0.6c-0.1,0.2-0.2,0.4-0.4,0.5
	c-0.2,0.2-0.4,0.2-0.6,0.2c-0.2,0-0.4-0.1-0.6-0.2l-2-2c0.7-0.6,1.6-0.9,2.5-1L27.2,241z"/>
<path d="M152.5,129.8C152.5,129.8,152.5,129.8,152.5,129.8C152.4,129.8,152.4,129.8,152.5,129.8c-1-3.6-2.7-6.9-4.9-9.8
	s-5-5.3-8.1-7.1c0,0,0,0,0,0c0,0,0,0,0,0c0,0,0,0,0,0c0,0,0,0,0,0c0,0,0,0,0,0c0,0,0,0,0,0c6.4,3.7,11.1,9.8,13,17c0,0,0,0.1,0,0.1
	C152.6,129.8,152.6,129.8,152.5,129.8L152.5,129.8z"/>
<path d="M99.1,129.8C99.1,129.8,99,129.8,99.1,129.8c-0.1,0-0.1-0.1-0.1-0.1c0.9-3.5,2.6-6.9,4.8-9.8c2.2-2.9,5-5.4,8.2-7.2
	c0,0,0,0,0,0c0,0,0,0,0,0c0,0,0,0,0,0c0,0,0,0,0,0c0,0,0,0,0,0.1c0,0,0,0,0,0C105.7,116.6,101.1,122.6,99.1,129.8
	C99.2,129.8,99.2,129.8,99.1,129.8C99.1,129.8,99.1,129.8,99.1,129.8z"/>
<path d="M125.8,164.5c-3.1,0-6.3-0.5-9.2-1.6c-3.9-1.4-7.4-3.6-10.3-6.6c-2.9-2.9-5.1-6.5-6.5-10.4c0,0,0-0.1,0-0.1c0,0,0,0,0,0
	c0,0,0,0,0,0s0,0,0,0c0,0,0,0,0,0c0,0,0,0,0,0c0,0,0,0,0,0c0,0,0,0,0,0c0,0,0,0,0,0c0,0,0,0.1,0,0.1c1.4,3.9,3.6,7.4,6.5,10.3
	c2.9,2.9,6.4,5.1,10.3,6.5c5.9,2.1,12.4,2.1,18.3,0c3.9-1.4,7.4-3.6,10.3-6.5s5.1-6.4,6.5-10.3c0,0,0,0,0,0c0,0,0,0,0.1,0
	c0,0,0,0,0.1,0c0,0,0,0,0,0.1c-1.9,5.4-5.4,10.1-10.1,13.4S131.6,164.5,125.8,164.5L125.8,164.5z"/>
<path d="M124,141.9c-0.4,0-0.8-0.1-1.2-0.4c-0.3-0.2-0.6-0.6-0.8-1c-0.2-0.4-0.2-0.8-0.1-1.2c0.1-0.4,0.3-0.8,0.6-1.1
	c0.3-0.3,0.7-0.5,1.1-0.6c0.4-0.1,0.8,0,1.2,0.1c0.4,0.2,0.7,0.4,1,0.8c0.2,0.3,0.4,0.8,0.4,1.2c0,0.5-0.2,1.1-0.6,1.4
	c0,0,0,0-0.1,0c0,0-0.1,0-0.1,0c0,0,0,0,0-0.1s0-0.1,0-0.1c0.3-0.3,0.5-0.7,0.5-1.2c0-0.4-0.1-0.9-0.3-1.2c-0.3-0.4-0.6-0.6-1-0.7
	c-0.4-0.1-0.9-0.1-1.3,0.1s-0.7,0.5-0.9,0.9c-0.2,0.4-0.3,0.8-0.2,1.3c0.1,0.4,0.3,0.8,0.7,1.1c0.3,0.3,0.8,0.4,1.2,0.4h0.2v0.1v0.1
	L124,141.9z"/>
<path d="M128.1,141.9c-0.3,0-0.6-0.1-0.8-0.2c-0.3-0.1-0.5-0.3-0.7-0.5c-0.4-0.4-0.6-0.9-0.6-1.4c0-0.4,0.1-0.8,0.4-1.2
	c0.2-0.3,0.6-0.6,1-0.8c0.4-0.2,0.8-0.2,1.2-0.1c0.4,0.1,0.8,0.3,1.1,0.6c0.3,0.3,0.5,0.7,0.6,1.1c0.1,0.4,0,0.8-0.1,1.2
	c-0.2,0.4-0.4,0.7-0.8,1C129,141.7,128.5,141.9,128.1,141.9z M128.1,137.9c-0.4,0-0.8,0.1-1.1,0.3c-0.3,0.2-0.6,0.5-0.7,0.9
	c-0.1,0.4-0.2,0.7-0.1,1.1c0.1,0.4,0.3,0.7,0.5,1c0.3,0.3,0.6,0.5,1,0.5c0.4,0.1,0.8,0,1.1-0.1c0.3-0.1,0.6-0.4,0.9-0.7
	s0.3-0.7,0.3-1.1c0-0.3,0-0.5-0.1-0.7c-0.1-0.2-0.2-0.5-0.4-0.6c-0.2-0.2-0.4-0.3-0.6-0.4C128.6,137.9,128.4,137.8,128.1,137.9
	L128.1,137.9z"/>
<path d="M126.7,143H125c-0.3,0-0.5-0.1-0.7-0.3c-0.2-0.2-0.3-0.4-0.3-0.7c0-0.1,0-0.2,0-0.3c0.1-0.2,0.2-0.4,0.4-0.5
	c0.2-0.1,0.4-0.2,0.6-0.2h1.6c0,0,0,0,0,0c0,0,0,0,0,0c0,0,0,0,0,0c0,0,0,0,0,0c0,0,0,0,0,0c0,0,0,0,0,0c0,0,0,0,0,0c0,0,0,0,0,0
	H125c-0.2,0-0.4,0.1-0.5,0.2c-0.1,0.1-0.2,0.3-0.2,0.5c0,0.2,0.1,0.4,0.2,0.6c0.1,0.1,0.2,0.1,0.3,0.2c0.1,0,0.2,0.1,0.3,0.1h1.6
	c0,0,0,0,0,0c0,0,0,0,0,0c0,0,0,0,0,0c0,0,0,0,0,0C126.7,142.9,126.7,142.9,126.7,143C126.7,143,126.7,143,126.7,143z"/>
<path d="M125.9,149.4c-0.7,0-1.4-0.1-2.1-0.4c-0.7-0.3-1.3-0.7-1.8-1.2c-0.5-0.5-0.9-1.1-1.2-1.8c-0.3-0.7-0.4-1.4-0.4-2.1v-0.1
	c0,0,0,0,0,0c0,0,0,0,0,0c0,0,0,0,0,0c0,0,0,0,0,0h10.1c0,0,0,0,0,0c0,0,0,0,0,0c0,0,0,0,0,0c0,0,0,0,0,0c0,0,0,0,0,0.1
	c0,0,0,0-0.1,0h-10c0,0.7,0.1,1.4,0.4,2c0.3,0.6,0.7,1.2,1.1,1.7c0.3,0.3,0.7,0.6,1.2,0.9c0.8,0.4,1.7,0.6,2.5,0.6
	c0.9,0,1.8-0.2,2.5-0.7c0.8-0.4,1.4-1.1,1.9-1.8c0.2-0.3,0.3-0.6,0.4-0.9c0,0,0,0,0,0c0,0,0,0,0,0c0,0,0,0,0,0c0,0,0,0,0,0
	c0,0,0,0,0,0.1s0,0,0,0.1c-0.1,0.3-0.3,0.6-0.5,0.9c-0.5,0.8-1.2,1.4-2,1.9C127.7,149.2,126.8,149.4,125.9,149.4z"/>
<path d="M133.1,149.2L133.1,149.2c-0.8-0.6-1.4-1.3-1.9-2.1s-0.6-1.8-0.6-2.7c0-0.2,0-0.3,0-0.5c0.1-0.9,0.3-1.8,0.8-2.5
	c0.5-0.8,1.1-1.4,1.8-2c0,0,0,0,0.1,0s0,0,0.1,0c0,0,0,0,0,0.1c0,0,0,0.1,0,0.1c-0.7,0.5-1.3,1.1-1.8,1.9c-0.4,0.8-0.7,1.6-0.8,2.5
	c0,0.1,0,0.3,0,0.5c0,0.5,0.1,1,0.2,1.5c0.3,1.3,1.1,2.4,2.2,3.2c0,0,0,0,0,0.1C133.3,149.1,133.2,149.2,133.1,149.2
	C133.2,149.2,133.2,149.2,133.1,149.2C133.2,149.2,133.2,149.2,133.1,149.2z"/>
<path d="M128.2,145.8H123c-0.2,0-0.4-0.1-0.6-0.2s-0.2-0.4-0.2-0.6v-1.1c0,0,0-0.1,0-0.1c0,0,0,0,0.1,0c0,0,0.1,0,0.1,0
	c0,0,0,0,0,0.1v1.1c0,0.1,0,0.2,0,0.2c0,0.1,0.1,0.1,0.1,0.2c0.1,0.1,0.1,0.1,0.2,0.1c0.1,0,0.2,0,0.2,0h5.2c0.1,0,0.2,0,0.2,0
	c0.1,0,0.1-0.1,0.2-0.1c0.1-0.1,0.1-0.1,0.1-0.2c0-0.1,0-0.2,0-0.2v-1.1c0,0,0,0,0,0c0,0,0,0,0,0c0,0,0,0,0,0c0,0,0,0,0,0
	c0,0,0,0,0,0c0,0,0,0,0,0c0,0,0,0,0,0c0,0,0,0,0,0v1.1c0,0.1,0,0.2-0.1,0.3c0,0.1-0.1,0.2-0.2,0.3c-0.1,0.1-0.2,0.1-0.3,0.2
	C128.4,145.8,128.3,145.8,128.2,145.8z"/>
<path d="M128.1,141.3c-0.2,0-0.4-0.1-0.6-0.2c-0.2-0.1-0.3-0.3-0.4-0.4c-0.1-0.2-0.1-0.4-0.1-0.6c0-0.2,0.1-0.4,0.3-0.5
	s0.3-0.2,0.5-0.3c0.2,0,0.4,0,0.6,0.1c0.2,0.1,0.3,0.2,0.4,0.4c0.1,0.2,0.2,0.4,0.2,0.6c0,0.3-0.1,0.5-0.3,0.7
	C128.6,141.2,128.3,141.3,128.1,141.3z M128.1,139.5c-0.2,0-0.3,0-0.5,0.1s-0.2,0.2-0.3,0.4c-0.1,0.2-0.1,0.3,0,0.5
	c0,0.2,0.1,0.3,0.2,0.4c0.1,0.1,0.3,0.2,0.4,0.2c0.2,0,0.3,0,0.5,0c0.1-0.1,0.3-0.2,0.4-0.3c0.1-0.1,0.1-0.3,0.1-0.5
	c0-0.1,0-0.2-0.1-0.3c0-0.1-0.1-0.2-0.2-0.3c-0.1-0.1-0.2-0.1-0.3-0.2C128.3,139.5,128.2,139.5,128.1,139.5z"/>
<path d="M123.9,141.2c-0.2,0-0.4-0.1-0.6-0.2c-0.2-0.1-0.3-0.3-0.4-0.4c-0.1-0.2-0.1-0.4-0.1-0.6c0-0.2,0.1-0.4,0.3-0.5
	c0.1-0.1,0.3-0.2,0.5-0.3c0.2,0,0.4,0,0.6,0.1c0.2,0.1,0.3,0.2,0.4,0.4c0.1,0.2,0.2,0.4,0.2,0.6c0,0.3-0.1,0.5-0.3,0.7
	C124.4,141.1,124.1,141.2,123.9,141.2z M123.9,139.4c-0.2,0-0.3,0-0.5,0.1c-0.1,0.1-0.2,0.2-0.3,0.4c-0.1,0.2-0.1,0.3,0,0.5
	c0,0.2,0.1,0.3,0.2,0.4c0.1,0.1,0.3,0.2,0.4,0.2c0.2,0,0.3,0,0.5,0s0.3-0.2,0.4-0.3c0.1-0.1,0.1-0.3,0.1-0.5c0-0.1,0-0.2-0.1-0.3
	c0-0.1-0.1-0.2-0.2-0.3c-0.1-0.1-0.2-0.1-0.3-0.2C124.1,139.4,124,139.4,123.9,139.4L123.9,139.4z"/>
<path d="M158.9,148.3h-7c0,0-0.1,0-0.1,0c0,0,0,0,0-0.1v-16.3c0,0,0,0,0,0c0,0,0,0,0,0c0,0,0,0,0,0c0,0,0,0,0,0h7
	c0.2,0,0.5,0.1,0.6,0.3c0.2,0.2,0.3,0.4,0.3,0.6v14.7c0,0.1,0,0.2-0.1,0.3c0,0.1-0.1,0.2-0.2,0.3c-0.1,0.1-0.2,0.2-0.3,0.2
	C159.1,148.3,159,148.3,158.9,148.3z M152,148.1h6.9c0.2,0,0.4-0.1,0.5-0.2c0.1-0.1,0.2-0.3,0.2-0.5v-14.7c0-0.2-0.1-0.4-0.2-0.5
	c-0.1-0.1-0.3-0.2-0.5-0.2H152V148.1z"/>
<path d="M99.7,148.3h-7c-0.2,0-0.5-0.1-0.6-0.3c-0.2-0.2-0.3-0.4-0.3-0.6v-14.7c0-0.2,0.1-0.5,0.3-0.6c0.2-0.2,0.4-0.3,0.6-0.3h7
	c0,0,0,0,0.1,0c0,0,0,0,0,0.1L99.7,148.3C99.8,148.2,99.8,148.3,99.7,148.3C99.8,148.3,99.7,148.3,99.7,148.3z M92.7,131.9
	c-0.1,0-0.2,0-0.3,0.1c-0.1,0-0.2,0.1-0.2,0.2c-0.1,0.1-0.1,0.1-0.2,0.2s-0.1,0.2-0.1,0.3v14.7c0,0.1,0,0.2,0.1,0.3
	c0,0.1,0.1,0.2,0.2,0.2c0.1,0.1,0.1,0.1,0.2,0.2c0.1,0,0.2,0.1,0.3,0.1h6.9v-16.1H92.7z"/>
<path d="M106.7,137.2h-5.6c0,0-0.1,0-0.1,0c0,0,0,0,0-0.1v-4c0-0.5-0.2-1.1-0.6-1.5c-0.4-0.4-0.9-0.7-1.4-0.7c0,0,0,0,0,0
	c0,0,0,0,0,0c0,0,0,0,0,0c0,0,0,0,0,0c0,0,0,0,0-0.1c0,0,0,0,0.1,0c0.6,0.1,1.1,0.3,1.5,0.8c0.4,0.4,0.6,1,0.6,1.6v3.9h5.4v-14
	c0-0.2,0-0.3,0.1-0.5c0.1-0.1,0.2-0.3,0.3-0.3c0.1-0.1,0.3-0.1,0.5-0.1c0.2,0,0.3,0,0.5,0.1c5.6,3.3,12,5.1,18.5,5.2
	c6,0.1,11.8-1.7,16.8-5c0.1-0.1,0.3-0.2,0.5-0.2c0.2,0,0.4,0,0.5,0.1c0.1,0.1,0.3,0.2,0.4,0.4c0.1,0.1,0.1,0.3,0.1,0.5v13.5h5.4
	v-3.4c0-0.6,0.2-1.2,0.7-1.7c0.4-0.5,1-0.8,1.6-0.8c0,0,0,0,0.1,0c0,0,0,0,0,0.1c0,0,0,0.1,0,0.1c0,0,0,0-0.1,0
	c-0.6,0.1-1.1,0.3-1.5,0.7c-0.4,0.4-0.6,1-0.6,1.6v3.5c0,0,0,0,0,0.1c0,0,0,0-0.1,0h-5.6c0,0,0,0,0,0c0,0,0,0,0,0c0,0,0,0,0,0
	c0,0,0,0,0,0v-13.5c0-0.1,0-0.3-0.1-0.4c-0.1-0.1-0.2-0.2-0.3-0.3c-0.1-0.1-0.2-0.1-0.4-0.1c-0.1,0-0.3,0-0.4,0.1
	c-5,3.3-10.9,5.1-16.9,5c-6.6-0.1-13-1.9-18.6-5.2c-0.1-0.1-0.2-0.1-0.4-0.1c-0.1,0-0.3,0-0.4,0.1c-0.1,0.1-0.2,0.2-0.3,0.3
	c-0.1,0.1-0.1,0.2-0.1,0.4v14c0,0,0,0,0,0c0,0,0,0,0,0c0,0,0,0,0,0.1s0,0,0,0c0,0,0,0,0,0S106.8,137.2,106.7,137.2
	C106.8,137.2,106.8,137.2,106.7,137.2C106.7,137.2,106.7,137.2,106.7,137.2z"/>
<path d="M156.1,131.9C156.1,131.9,156.1,131.9,156.1,131.9c-0.1,0-0.1-0.1-0.1-0.1v-5.3c0-2.3-0.4-4.5-1.3-6.6
	c-0.9-2.1-2.1-4-3.7-5.6c-1.6-1.6-3.5-2.9-5.6-3.8s-4.3-1.3-6.6-1.3h-26c-4.6,0-9,1.8-12.2,5.1c-3.2,3.2-5.1,7.6-5.1,12.2v5.3
	c0,0,0,0,0,0.1c0,0,0,0-0.1,0c0,0,0,0,0,0c0,0,0,0,0,0c0,0,0,0,0,0c0,0,0,0,0,0v-5.3c0-4.6,1.8-9.1,5.1-12.3
	c3.3-3.3,7.7-5.1,12.3-5.1h26c4.6,0,9.1,1.8,12.3,5.1c3.3,3.3,5.1,7.7,5.1,12.3v5.3C156.2,131.9,156.2,131.9,156.1,131.9
	C156.2,131.9,156.2,131.9,156.1,131.9C156.2,131.9,156.2,131.9,156.1,131.9C156.2,131.9,156.2,131.9,156.1,131.9z"/>
<path d="M152.5,131.9C152.5,131.9,152.5,131.9,152.5,131.9C152.4,131.9,152.4,131.9,152.5,131.9l-0.1-5.4c0-3.5-1.3-6.8-3.7-9.4
	c-2.4-2.5-5.7-4.1-9.1-4.2h-0.8h-26H112c-3.5,0.2-6.8,1.7-9.1,4.2c-2.4,2.5-3.7,5.9-3.7,9.4v5.3c0,0,0,0,0,0.1c0,0,0,0-0.1,0
	c0,0,0,0-0.1,0c0,0,0,0,0-0.1v-5.3c0-3.5,1.4-6.9,3.8-9.5c2.4-2.6,5.7-4.1,9.3-4.3h0.8h26h0.8c3.5,0.2,6.8,1.7,9.3,4.3
	c2.4,2.6,3.8,6,3.8,9.5v5.3C152.6,131.9,152.6,131.9,152.5,131.9C152.6,131.9,152.5,131.9,152.5,131.9z"/>
<path d="M127.4,173.3h-3.2c-1.9,0-3.8-0.7-5.2-2.1c-1.4-1.3-2.3-3.2-2.4-5.1c0-0.2,0-0.3,0-0.5v-2.8c0,0,0-0.1,0-0.1c0,0,0,0,0.1,0
	c0,0,0.1,0,0.1,0c0,0,0,0,0,0.1v2.8c0,0.2,0,0.3,0,0.5c0.1,1.9,1,3.7,2.3,5c1.4,1.3,3.2,2,5.1,2h3.2c1.9,0,3.7-0.7,5.1-2
	c1.4-1.3,2.2-3.1,2.4-5c0-0.2,0-0.3,0-0.5v-2.8c0,0,0-0.1,0-0.1c0,0,0,0,0.1,0c0,0,0.1,0,0.1,0c0,0,0,0,0,0.1v2.8c0,0.2,0,0.4,0,0.5
	c-0.1,1.9-1,3.8-2.4,5.1C131.2,172.6,129.3,173.3,127.4,173.3z"/>
<path d="M204.9,250.5h-38.2c0,0-0.1,0-0.1,0c0,0,0,0,0-0.1c0,0,0-0.1,0-0.1c0,0,0,0,0.1,0h38.2c4.4,0,8.7-1.3,12.3-3.7
	c3.6-2.4,6.5-5.9,8.1-9.9c1.7-4,2.1-8.5,1.3-12.8c-0.9-4.3-3-8.2-6.1-11.3l-38-38c-2.6-2.6-5.7-4.7-9.2-6.2
	c-3.4-1.4-7.1-2.2-10.8-2.1h-27.6c0,0-0.1,0-0.1,0c0,0,0,0,0-0.1c0,0,0,0,0,0c0,0,0,0,0,0c0,0,0,0,0,0c0,0,0,0,0,0h27.6
	c3.8,0,7.5,0.7,10.9,2.2c3.5,1.4,6.6,3.6,9.3,6.2l38,38c3.1,3.1,5.2,7.1,6.1,11.4c0.9,4.3,0.4,8.8-1.3,12.9c-1.7,4.1-4.6,7.6-8.2,10
	C213.7,249.2,209.3,250.5,204.9,250.5L204.9,250.5z"/>
<path d="M52.2,223.1C52.2,223.1,52.2,223.1,52.2,223.1C52.2,223.1,52.2,223.1,52.2,223.1C52.2,223.1,52.1,223.1,52.2,223.1
	C52.1,223.1,52.1,223,52.2,223.1l-0.1-17.3c0-10.5,4.2-20.6,11.6-28.1c7.4-7.4,17.5-11.6,28.1-11.6h24.8c0,0,0,0,0.1,0
	c0,0,0,0,0,0.1c0,0,0,0,0,0c0,0,0,0,0,0c0,0,0,0,0,0c0,0,0,0,0,0H91.8c-10.5,0-20.5,4.2-27.9,11.6c-7.4,7.4-11.6,17.5-11.6,27.9
	L52.2,223.1C52.3,223.1,52.3,223.1,52.2,223.1C52.3,223.1,52.3,223.1,52.2,223.1z"/>
<path d="M70.9,250.5C70.9,250.5,70.9,250.5,70.9,250.5C70.9,250.4,70.8,250.4,70.9,250.5c-0.1-0.1-0.1-0.2-0.1-0.2c0,0,0,0,0.1,0
	c1.8,0,3.5-0.7,4.7-1.9c1.3-1.2,2-2.9,2.1-4.7s-0.5-3.5-1.7-4.8c-1.1-1.3-2.8-2.2-4.5-2.4h-0.7h-6.3c-0.9,0-1.8,0.2-2.6,0.5
	c-0.8,0.3-1.6,0.9-2.2,1.5c-0.6,0.6-1.2,1.4-1.5,2.2c-0.3,0.8-0.5,1.7-0.5,2.7c0,0.3,0,0.6,0,0.9c0.2,1.7,1,3.2,2.3,4.3
	c1.3,1.1,2.9,1.7,4.6,1.7c0,0,0.1,0,0.1,0c0,0,0,0,0,0.1c0,0,0,0.1,0,0.1c0,0,0,0-0.1,0c-1.7,0-3.4-0.6-4.7-1.8
	c-1.3-1.1-2.1-2.7-2.4-4.4c0-0.3-0.1-0.6-0.1-0.9c0-1.9,0.8-3.7,2.1-5c1.3-1.3,3.1-2.1,5-2.1h6.3c0.2,0,0.4,0,0.7,0
	c1.8,0.2,3.5,1,4.7,2.4c1.2,1.4,1.8,3.2,1.7,5c-0.1,1.8-0.9,3.6-2.2,4.8C74.5,249.7,72.7,250.4,70.9,250.5L70.9,250.5z"/>
<path d="M61.4,237.2C61.4,237.2,61.4,237.2,61.4,237.2C61.4,237.2,61.4,237.2,61.4,237.2C61.3,237.2,61.3,237.2,61.4,237.2
	c-0.1-0.1-0.1-0.1-0.1-0.1v-4.9c0-0.1-0.2-2,2.7-4.8c0,0,0,0,0.1,0s0.1,0,0.1,0c0,0,0,0,0,0c0,0,0,0,0,0c0,0,0,0,0,0c0,0,0,0,0,0
	c-2.8,2.8-2.6,4.6-2.6,4.7v4.9c0,0,0,0,0,0C61.5,237.2,61.5,237.2,61.4,237.2C61.5,237.2,61.5,237.2,61.4,237.2
	C61.4,237.2,61.4,237.2,61.4,237.2z"/>
<path d="M55.3,244.8c-0.9,0-1.7-0.2-2.5-0.5c-0.8-0.3-1.5-0.8-2.1-1.5c-0.1-0.1-0.3-0.3-0.4-0.5c-0.9-1.1-1.3-2.4-1.3-3.8v-7.7
	c0-2.4,0.7-4.7,2.2-6.6c0.3-0.4,0.6-0.8,1-1.2l0.2-0.2c1.6-1.6,3.6-2.7,5.8-3.1c2.2-0.4,4.5-0.2,6.5,0.6c2.1,0.9,3.8,2.3,5.1,4.2
	c1.3,1.9,1.9,4,1.9,6.3v5.6c0,0,0,0,0,0c0,0,0,0,0,0c0,0,0,0,0,0c0,0,0,0,0,0c0,0,0,0,0,0s0,0,0,0c0,0,0,0,0,0c0,0,0,0,0,0v-5.6
	c0-3-1.2-5.8-3.3-7.9c-2.1-2.1-4.9-3.3-7.9-3.3c-1.5,0-2.9,0.3-4.3,0.8c-1.4,0.6-2.6,1.4-3.6,2.4l-0.2,0.2c-0.4,0.4-0.7,0.8-1,1.2
	c-1.4,1.9-2.1,4.2-2.1,6.5v7.8c0,1.3,0.4,2.6,1.3,3.7c0.1,0.2,0.2,0.3,0.4,0.4c0.6,0.6,1.3,1.1,2,1.4c0.8,0.3,1.6,0.5,2.4,0.5
	c0.8,0,1.6-0.2,2.4-0.5c0,0,0,0,0,0c0,0,0,0,0,0s0,0,0,0c0,0,0,0,0,0c0,0,0,0,0,0.1s0,0,0,0.1C57,244.6,56.1,244.8,55.3,244.8z"/>
<path d="M61.5,231.9C61.5,231.9,61.5,231.9,61.5,231.9C61.4,231.9,61.4,231.9,61.5,231.9c-0.1,0-0.1,0-0.1,0c0,0,0,0,0,0
	c0,0,0,0,0,0s0,0,0,0c0.6-0.4,1.3-0.7,2.1-0.8c0.7-0.1,1.5-0.1,2.2,0.2c0,0,0,0,0.1,0c0,0,0,0,0,0.1c0,0,0,0,0,0.1c0,0,0,0-0.1,0
	c-0.7-0.2-1.4-0.3-2.1-0.2C62.8,231.3,62.1,231.5,61.5,231.9C61.5,231.9,61.5,231.9,61.5,231.9z"/>
<path d="M44.3,246.1c-1.9,0-3.6-0.7-4.9-2.1c-1.3-1.3-2.1-3.1-2.1-4.9v-3.8c0-3,1.2-5.8,3.3-7.9s4.9-3.3,7.9-3.3h2.8c0,0,0,0,0.1,0
	c0,0,0,0,0,0.1c0,0,0,0.1,0,0.1c0,0,0,0-0.1,0h-2.8c-2.9,0-5.7,1.2-7.8,3.2c-2.1,2.1-3.2,4.8-3.2,7.7v3.8c0,0.9,0.2,1.8,0.5,2.6
	c0.3,0.8,0.8,1.6,1.5,2.2c0.6,0.6,1.4,1.1,2.2,1.5c0.8,0.3,1.7,0.5,2.6,0.5c1.3,0,2.5-0.3,3.5-1c1-0.6,1.9-1.5,2.5-2.6c0,0,0,0,0,0
	c0,0,0,0,0,0c0,0,0.1,0,0.1,0c0,0,0,0,0,0.1c-0.6,1.1-1.5,2.1-2.6,2.7C46.8,245.7,45.5,246,44.3,246.1L44.3,246.1z"/>
<path d="M34.5,250.5C34.5,250.5,34.5,250.5,34.5,250.5C34.5,250.5,34.5,250.5,34.5,250.5C34.5,250.4,34.5,250.4,34.5,250.5
	C34.5,250.4,34.5,250.4,34.5,250.5l-0.1-1.1c0-0.2,0-0.5,0-0.7c0.2-2.7,1.3-5.3,3.2-7.3c0,0,0,0,0.1,0c0,0,0.1,0,0.1,0
	c0,0,0,0,0,0.1c0,0,0,0.1,0,0.1c-1.9,1.9-3,4.5-3.2,7.2c0,0.2,0,0.5,0,0.7v1C34.6,250.4,34.6,250.4,34.5,250.5
	C34.6,250.5,34.6,250.5,34.5,250.5z"/>
<path d="M50.7,248.8C50.7,248.8,50.7,248.8,50.7,248.8c-0.1,0-0.1-0.1-0.1-0.1v-5.9c0,0,0-0.1,0-0.1c0,0,0,0,0.1,0c0,0,0,0,0,0
	c0,0,0,0,0,0c0,0,0,0,0,0c0,0,0,0,0,0v5.9C50.8,248.7,50.8,248.7,50.7,248.8C50.8,248.7,50.8,248.7,50.7,248.8
	C50.8,248.8,50.8,248.8,50.7,248.8C50.7,248.8,50.7,248.8,50.7,248.8z"/>
<path d="M60.1,248.8H34.6c0,0-0.1,0-0.1,0c0,0,0,0,0-0.1c0,0,0,0,0,0c0,0,0,0,0,0c0,0,0,0,0,0c0,0,0,0,0,0h25.5c0,0,0,0,0.1,0
	c0,0,0,0,0,0.1C60.2,248.7,60.2,248.7,60.1,248.8C60.1,248.8,60.1,248.8,60.1,248.8z"/>
<path d="M36,250.5h-9c-1.1,0-2.1-0.3-3-1c-0.9-0.6-1.5-1.5-1.9-2.5c-0.3-1-0.4-2.1-0.1-3.2c0.3-1,0.9-1.9,1.8-2.6
	c0.8-0.6,1.6-0.9,2.6-1h0.1c6.1-0.6,9.2-2.4,10.8-3.8c0,0,0,0,0.1,0c0,0,0,0,0.1,0c0,0,0,0,0,0.1c0,0,0,0,0,0.1
	c-1.6,1.4-4.7,3.2-10.9,3.8h-0.1c-0.9,0.1-1.8,0.5-2.5,1c-0.8,0.6-1.4,1.5-1.7,2.5c-0.3,1-0.3,2.1,0.1,3c0.3,1,1,1.8,1.8,2.4
	c0.8,0.6,1.8,0.9,2.9,0.9h9c0,0,0.1,0,0.1,0C36.1,250.4,36.1,250.4,36,250.5C36.1,250.4,36.1,250.5,36,250.5
	C36.1,250.5,36,250.5,36,250.5L36,250.5z"/>
<path d="M62.6,246.4c-0.2,0-0.4,0-0.6-0.1c-0.2-0.1-0.3-0.2-0.5-0.3c-0.1-0.1-0.2-0.3-0.3-0.5c-0.1-0.2-0.1-0.4-0.1-0.6v-2.4
	c0-0.2,0-0.4,0.1-0.6c0.1-0.2,0.2-0.3,0.3-0.5c0.1-0.1,0.3-0.2,0.5-0.3c0.2-0.1,0.4-0.1,0.6-0.1c0.2,0,0.5,0,0.7,0.1
	c0.2,0.1,0.4,0.2,0.6,0.4c0.2,0.2,0.3,0.4,0.4,0.6c0.1,0.2,0.1,0.5,0.1,0.7v1.8c0,0.2,0,0.5-0.1,0.7c-0.1,0.2-0.2,0.4-0.4,0.6
	s-0.4,0.3-0.6,0.4C63.1,246.4,62.8,246.4,62.6,246.4z M62.6,241.2c-0.3,0-0.7,0.1-0.9,0.4c-0.2,0.2-0.4,0.6-0.4,0.9v2.4
	c0,0.3,0.1,0.7,0.4,0.9c0.2,0.2,0.6,0.4,0.9,0.4c0.2,0,0.4,0,0.6-0.1c0.2-0.1,0.4-0.2,0.5-0.3c0.1-0.1,0.3-0.3,0.3-0.5
	c0.1-0.2,0.1-0.4,0.1-0.6v-1.8c0-0.2,0-0.4-0.1-0.6c-0.1-0.2-0.2-0.4-0.3-0.5c-0.1-0.1-0.3-0.3-0.5-0.3
	C63,241.3,62.8,241.2,62.6,241.2z"/>
<path d="M54.5,241.2h-2.4c-0.4,0-0.8-0.2-1-0.4c-0.3-0.3-0.4-0.7-0.4-1c0-0.2,0-0.5,0.1-0.7c0.1-0.2,0.2-0.4,0.4-0.6
	c0.2-0.2,0.4-0.3,0.6-0.4c0.2-0.1,0.4-0.1,0.7-0.1h1.8c0.5,0,0.9,0.2,1.3,0.5c0.3,0.3,0.5,0.8,0.5,1.3c0,0.2,0,0.4-0.1,0.6
	c-0.1,0.2-0.2,0.3-0.3,0.5c-0.1,0.1-0.3,0.2-0.5,0.3C54.9,241.2,54.7,241.2,54.5,241.2z M52.4,238.2c-0.4,0-0.8,0.2-1.1,0.5
	c-0.3,0.3-0.5,0.7-0.5,1.1c0,0.3,0.1,0.7,0.4,0.9c0.2,0.2,0.6,0.4,0.9,0.4h2.4c0.3,0,0.7-0.1,0.9-0.4c0.2-0.2,0.4-0.6,0.4-0.9
	c0-0.4-0.2-0.8-0.5-1.1c-0.3-0.3-0.7-0.5-1.1-0.5H52.4z"/>
<path d="M43.8,242.5h-2.4c-0.2,0-0.4,0-0.6-0.1c-0.2-0.1-0.3-0.2-0.5-0.3c-0.1-0.1-0.2-0.3-0.3-0.5c-0.1-0.2-0.1-0.4-0.1-0.6
	c0-0.2,0-0.5,0.1-0.7c0.1-0.2,0.2-0.4,0.4-0.6c0.3-0.3,0.8-0.5,1.2-0.5h1.8c0.5,0,0.9,0.2,1.3,0.5c0.3,0.3,0.5,0.8,0.5,1.3
	c0,0.4-0.2,0.7-0.4,1C44.6,242.3,44.2,242.5,43.8,242.5z M41.7,239.4c-0.4,0-0.8,0.2-1.1,0.5c-0.3,0.3-0.5,0.7-0.5,1.1
	c0,0.3,0.1,0.7,0.4,0.9c0.2,0.2,0.6,0.4,0.9,0.4h2.4c0.3,0,0.7-0.1,0.9-0.4c0.2-0.2,0.4-0.6,0.4-0.9c0-0.2,0-0.4-0.1-0.6
	c-0.1-0.2-0.2-0.4-0.3-0.5c-0.1-0.1-0.3-0.3-0.5-0.3c-0.2-0.1-0.4-0.1-0.6-0.1H41.7z"/>
<path d="M26.6,243.7c-0.1,0-0.2,0-0.4-0.1c-0.1,0-0.2-0.1-0.3-0.2l-2-2c0,0,0,0,0-0.1s0-0.1,0-0.1c0,0,0,0,0,0c0,0,0,0,0,0
	c0,0,0,0,0,0c0,0,0,0,0,0l2,2c0.1,0.1,0.3,0.2,0.5,0.2c0.2,0,0.4-0.1,0.5-0.2c0.1-0.1,0.3-0.3,0.3-0.5c0.1-0.2,0.1-0.4,0.1-0.6
	c0-0.2,0-0.4-0.1-0.6c-0.1-0.2-0.2-0.4-0.3-0.5l-0.7-0.7c0,0,0,0,0-0.1c0,0,0,0,0-0.1s0,0,0.1,0c0,0,0,0,0.1,0l0.7,0.7
	c0.3,0.3,0.5,0.8,0.5,1.2c0,0.5-0.2,0.9-0.5,1.2C27.1,243.6,26.8,243.7,26.6,243.7z"/>
<path d="M166.7,242C166.7,242,166.7,242,166.7,242c-0.1-0.1-0.1-0.1-0.1-0.1L179,190c0.2-0.7,0.2-1.5,0-2.2c-0.2-0.7-0.5-1.4-0.9-2
	c-0.5-0.6-1-1-1.7-1.4c-0.7-0.3-1.4-0.5-2.1-0.5H75.7c-0.7,0-1.5,0.2-2.1,0.5c-0.7,0.3-1.2,0.8-1.7,1.4c-0.5,0.6-0.8,1.2-0.9,2
	c-0.2,0.7-0.2,1.5,0,2.2l12.3,51.7c0,0,0,0,0,0c0,0,0,0,0,0c0,0,0,0,0,0c0,0,0,0,0,0c0,0-0.1,0-0.1,0s0,0,0-0.1l-12.4-51.7
	c-0.2-0.8-0.2-1.5,0-2.3c0.2-0.8,0.5-1.5,1-2.1c0.5-0.6,1.1-1.1,1.8-1.4s1.5-0.5,2.2-0.5h98.5c0.8,0,1.5,0.2,2.2,0.5
	c0.7,0.3,1.3,0.8,1.8,1.4c0.5,0.6,0.8,1.3,1,2.1s0.2,1.5,0,2.3L166.7,242C166.8,241.9,166.8,242,166.7,242
	C166.8,242,166.8,242,166.7,242C166.8,242,166.8,242,166.7,242C166.7,242,166.7,242,166.7,242z"/>
<path d="M166.7,250.5H83.2c0,0,0,0-0.1,0c0,0,0,0,0-0.1v-8.5c0,0,0-0.1,0-0.1c0,0,0,0,0.1,0h83.5c0,0,0,0,0.1,0c0,0,0,0,0,0.1
	L166.7,250.5C166.8,250.4,166.8,250.4,166.7,250.5C166.8,250.5,166.7,250.5,166.7,250.5z M83.3,250.3h83.3V242H83.3L83.3,250.3z"/>
<path d="M124.9,214.9c-1.1,0-2.3-0.3-3.2-1c-1-0.6-1.7-1.5-2.1-2.6c-0.4-1.1-0.6-2.2-0.3-3.3c0.2-1.1,0.8-2.2,1.6-3
	c0.8-0.8,1.8-1.4,3-1.6c1.1-0.2,2.3-0.1,3.3,0.3s2,1.2,2.6,2.1c0.6,1,1,2.1,1,3.2c0,1.5-0.6,3-1.7,4.1
	C128,214.3,126.5,214.9,124.9,214.9z M124.9,203.5c-1.1,0-2.2,0.3-3.1,0.9c-0.9,0.6-1.6,1.5-2.1,2.5c-0.4,1-0.5,2.1-0.3,3.2
	c0.2,1.1,0.8,2.1,1.5,2.9c0.8,0.8,1.8,1.3,2.9,1.5s2.2,0.1,3.2-0.3c1-0.4,1.9-1.1,2.5-2.1c0.6-0.9,0.9-2,0.9-3.1
	c0-0.7-0.1-1.5-0.4-2.1c-0.3-0.7-0.7-1.3-1.2-1.8c-0.5-0.5-1.1-0.9-1.8-1.2C126.4,203.6,125.7,203.5,124.9,203.5z"/>
<path d="M195,223.1h-23.7c0,0,0,0,0,0c0,0,0,0,0,0c0,0,0,0,0,0c0,0,0,0,0,0c0,0,0,0,0,0c0,0,0,0,0,0c0,0,0,0,0,0c0,0,0,0,0,0H195
	c0,0,0.1,0,0.1,0C195,223,195.1,223,195,223.1C195.1,223.1,195,223.1,195,223.1C195,223.1,195,223.1,195,223.1z"/>
<path d="M182.5,223.1L182.5,223.1C182.4,223.1,182.4,223.1,182.5,223.1c-0.1-0.1-0.1-0.1-0.1-0.1l8.5-8.5c0,0,0,0,0.1,0
	c0,0,0,0,0.1,0c0,0,0,0,0,0.1c0,0,0,0,0,0.1L182.5,223.1L182.5,223.1z"/>
<path d="M127.8,179.9h-4.1c-3.7,0-7.2-1.5-9.8-4c-2.6-2.6-4-6.1-4-9.8c0,0,0-0.1,0-0.1c0,0,0,0,0.1,0c0,0,0.1,0,0.1,0c0,0,0,0,0,0.1
	c0,3.6,1.4,7.1,4,9.6c2.5,2.5,6,4,9.6,4h4.1c3.6,0,7.1-1.4,9.6-4c2.5-2.5,4-6,4-9.6c0,0,0,0,0,0c0,0,0,0,0,0c0,0,0,0,0,0s0,0,0,0
	c0,0,0,0,0.1,0c0,0,0,0,0,0.1c0,3.7-1.5,7.2-4,9.8C135,178.5,131.5,179.9,127.8,179.9L127.8,179.9z"/>
<path d="M89.2,248.2c-0.4,0-0.7-0.1-1-0.3c-0.3-0.2-0.5-0.5-0.7-0.8c-0.1-0.3-0.2-0.7-0.1-1c0.1-0.4,0.2-0.7,0.5-0.9
	c0.3-0.3,0.6-0.4,0.9-0.5c0.4-0.1,0.7,0,1,0.1c0.3,0.1,0.6,0.4,0.8,0.7c0.2,0.3,0.3,0.6,0.3,1c0,0.5-0.2,0.9-0.5,1.3
	C90.2,248,89.7,248.2,89.2,248.2z M89.2,244.8c-0.3,0-0.6,0.1-0.9,0.3c-0.3,0.2-0.5,0.4-0.6,0.7c-0.1,0.3-0.2,0.6-0.1,0.9
	c0.1,0.3,0.2,0.6,0.4,0.8c0.2,0.2,0.5,0.4,0.8,0.4c0.3,0.1,0.6,0,0.9-0.1c0.3-0.1,0.5-0.3,0.7-0.6c0.2-0.3,0.3-0.6,0.3-0.9
	c0-0.4-0.2-0.8-0.5-1.1C90,245,89.6,244.8,89.2,244.8L89.2,244.8z"/>
<path d="M99.1,248.2h-3.3c0,0,0,0-0.1,0c0,0,0,0,0-0.1v-3.3c0,0,0,0,0-0.1c0,0,0,0,0.1,0h3.3c0,0,0,0,0.1,0c0,0,0,0,0,0.1v3.3
	C99.2,248.1,99.2,248.2,99.1,248.2C99.1,248.2,99.1,248.2,99.1,248.2z M95.9,248H99v-3.1h-3.1V248z"/>
<path d="M125.9,179.9C125.9,179.9,125.8,179.9,125.9,179.9C125.8,179.9,125.8,179.9,125.9,179.9
	C125.8,179.9,125.8,179.9,125.9,179.9c-0.1-0.1-0.1-0.1-0.1-0.1v-6.6c0,0,0-0.1,0-0.1c0,0,0,0,0.1,0c0,0,0,0,0.1,0c0,0,0,0,0,0.1
	v6.6C126,179.8,126,179.8,125.9,179.9C126,179.9,126,179.9,125.9,179.9C125.9,179.9,125.9,179.9,125.9,179.9
	C125.9,179.9,125.9,179.9,125.9,179.9z"/>
<path d="M113.9,175.8C113.9,175.8,113.9,175.8,113.9,175.8C113.9,175.8,113.9,175.8,113.9,175.8
	C113.8,175.8,113.8,175.7,113.9,175.8c-0.1-0.1-0.1-0.1-0.1-0.1l4.8-4.8c0,0,0,0,0.1,0s0.1,0,0.1,0c0,0,0,0,0,0c0,0,0,0,0,0
	c0,0,0,0,0,0c0,0,0,0,0,0L113.9,175.8C114,175.8,113.9,175.8,113.9,175.8z"/>
<path d="M137.6,175.8C137.6,175.8,137.6,175.8,137.6,175.8l-4.9-4.8c0,0,0,0,0,0c0,0,0,0,0,0c0,0,0,0,0,0c0,0,0,0,0,0c0,0,0,0,0.1,0
	s0.1,0,0.1,0l4.8,4.8C137.7,175.7,137.7,175.7,137.6,175.8C137.7,175.7,137.7,175.8,137.6,175.8
	C137.7,175.8,137.7,175.8,137.6,175.8C137.7,175.8,137.7,175.8,137.6,175.8z"/>
<path d="M123.3,148.7C123.3,148.7,123.3,148.7,123.3,148.7c-0.1,0-0.1,0-0.1-0.1s0-0.1,0-0.1c1.5-1.3,3.4-2.1,5.4-2.1
	c0.6,0,1.2,0.1,1.8,0.2c0,0,0,0,0.1,0c0,0,0,0,0,0.1c0,0,0,0,0,0.1c0,0,0,0-0.1,0c-0.6-0.1-1.2-0.2-1.8-0.2
	C126.7,146.7,124.8,147.4,123.3,148.7L123.3,148.7z"/>
<path class="st0" d="M32,91.7c6.3,0,12.5,1.9,17.7,5.4c5.2,3.5,9.3,8.5,11.7,14.3c2.4,5.8,3,12.2,1.8,18.4
	c-1.2,6.2-4.3,11.8-8.7,16.3c-4.5,4.5-10.1,7.5-16.3,8.7c-6.2,1.2-12.6,0.6-18.4-1.8C14,150.5,9,146.4,5.5,141.2
	C2,136,0.2,129.8,0.2,123.5c0-8.4,3.4-16.5,9.3-22.5C15.5,95,23.6,91.7,32,91.7z M51.2,134v-21.1c0-1-0.4-2-1.1-2.7
	c-0.7-0.7-1.7-1.1-2.7-1.1H16.6c-1,0-2,0.4-2.7,1.1c-0.7,0.7-1.1,1.7-1.1,2.7V134c0,1,0.4,2,1.1,2.7c0.7,0.7,1.7,1.1,2.7,1.1h30.8
	c1,0,2-0.4,2.7-1.1C50.8,136,51.2,135.1,51.2,134z"/>
<path class="st8" d="M51.2,112.9V134c0,1-0.4,2-1.1,2.7c-0.7,0.7-1.7,1.1-2.7,1.1H16.6c-1,0-2-0.4-2.7-1.1c-0.7-0.7-1.1-1.7-1.1-2.7
	v-21.1c0-1,0.4-2,1.1-2.7c0.7-0.7,1.7-1.1,2.7-1.1h30.8c1,0,2,0.4,2.7,1.1C50.8,111,51.2,111.9,51.2,112.9z M38.9,124.2
	c0.1-0.1,0.3-0.2,0.3-0.4c0.1-0.2,0.1-0.3,0.1-0.5c0-0.2,0-0.4-0.1-0.5c-0.1-0.2-0.2-0.3-0.3-0.4l-9.6-7.3c-0.2-0.1-0.4-0.2-0.6-0.2
	c-0.2,0-0.4,0-0.6,0.1c-0.2,0.1-0.4,0.2-0.5,0.4c-0.1,0.2-0.2,0.4-0.2,0.6v14.8c0,0.2,0.1,0.4,0.2,0.6c0.1,0.2,0.3,0.3,0.5,0.4
	c0.2,0.1,0.4,0.1,0.6,0.1c0.2,0,0.4-0.1,0.6-0.2L38.9,124.2z"/>
<path class="st0" d="M38.8,122.4c0.1,0.1,0.3,0.2,0.3,0.4c0.1,0.2,0.1,0.3,0.1,0.5c0,0.2,0,0.4-0.1,0.5c-0.1,0.2-0.2,0.3-0.3,0.4
	l-9.6,7.6c-0.2,0.1-0.4,0.2-0.6,0.2c-0.2,0-0.4,0-0.6-0.1c-0.2-0.1-0.4-0.2-0.5-0.4c-0.1-0.2-0.2-0.4-0.2-0.6V116
	c0-0.2,0.1-0.4,0.2-0.6c0.1-0.2,0.3-0.3,0.5-0.4c0.2-0.1,0.4-0.1,0.6-0.1c0.2,0,0.4,0.1,0.6,0.2L38.8,122.4z"/>
<path d="M47.4,138H16.6c-1.1,0-2.1-0.4-2.8-1.2c-0.8-0.8-1.2-1.8-1.2-2.8v-21.1c0-1.1,0.4-2.1,1.2-2.8c0.8-0.8,1.8-1.2,2.8-1.2h30.8
	c1.1,0,2.1,0.4,2.8,1.2c0.8,0.8,1.2,1.8,1.2,2.8V134c0,1.1-0.4,2.1-1.2,2.8C49.5,137.6,48.5,138,47.4,138z M16.6,109.3
	c-1,0-1.9,0.4-2.5,1.1c-0.7,0.7-1.1,1.6-1.1,2.5V134c0,1,0.4,1.9,1.1,2.5c0.7,0.7,1.6,1.1,2.5,1.1h30.8c1,0,1.9-0.4,2.5-1.1
	c0.7-0.7,1.1-1.6,1.1-2.5v-21.1c0-1-0.4-1.9-1.1-2.5c-0.7-0.7-1.6-1.1-2.5-1.1H16.6z"/>
<path d="M28.5,132.2c-0.2,0-0.4,0-0.6-0.1c-0.2-0.1-0.4-0.3-0.6-0.5c-0.1-0.2-0.2-0.5-0.2-0.7V116c0-0.3,0.1-0.5,0.2-0.7
	c0.1-0.2,0.3-0.4,0.6-0.5c0.2-0.1,0.5-0.2,0.7-0.1c0.3,0,0.5,0.1,0.7,0.3l9.6,7.3c0.2,0.1,0.3,0.3,0.4,0.5c0.1,0.2,0.1,0.4,0.1,0.6
	c0,0.2,0,0.4-0.1,0.6c-0.1,0.2-0.2,0.4-0.4,0.5l-9.6,7.6C29.1,132.1,28.8,132.2,28.5,132.2z M28.5,115c-0.1,0-0.3,0-0.4,0.1
	c-0.2,0.1-0.3,0.2-0.4,0.4c-0.1,0.2-0.1,0.3-0.1,0.5v14.9c0,0.2,0,0.4,0.1,0.5c0.1,0.2,0.2,0.3,0.4,0.4c0.2,0.1,0.3,0.1,0.5,0.1
	s0.3-0.1,0.5-0.2l9.6-7.6c0.1-0.1,0.2-0.2,0.3-0.3c0.1-0.1,0.1-0.3,0.1-0.4c0-0.1,0-0.3-0.1-0.4c-0.1-0.1-0.1-0.2-0.3-0.3l-9.6-7.3
	C28.9,115.1,28.7,115.1,28.5,115L28.5,115z"/>
<path d="M32,155.5c-6.3,0-12.5-1.9-17.8-5.4c-5.3-3.5-9.4-8.5-11.8-14.4c-2.4-5.8-3.1-12.3-1.8-18.5c1.2-6.2,4.3-11.9,8.8-16.4
	c4.5-4.5,10.2-7.5,16.4-8.8c6.2-1.2,12.6-0.6,18.5,1.8c5.8,2.4,10.8,6.5,14.4,11.8c3.5,5.3,5.4,11.4,5.4,17.8
	c0,8.5-3.4,16.6-9.4,22.6C48.6,152.1,40.5,155.5,32,155.5z M32,91.9c-6.3,0-12.4,1.9-17.6,5.3c-5.2,3.5-9.3,8.4-11.7,14.2
	c-2.4,5.8-3,12.1-1.8,18.3c1.2,6.1,4.2,11.8,8.7,16.2c4.4,4.4,10.1,7.4,16.2,8.7c6.1,1.2,12.5,0.6,18.3-1.8
	c5.8-2.4,10.7-6.4,14.2-11.6c3.5-5.2,5.3-11.3,5.3-17.6c0-8.4-3.3-16.4-9.3-22.4C48.4,95.2,40.4,91.9,32,91.9z"/>
<path class="st0" d="M163.4,0.8c9.1,0,18,2.7,25.5,7.7c7.6,5,13.4,12.2,16.9,20.6c3.5,8.4,4.4,17.6,2.6,26.5
	c-1.8,8.9-6.1,17.1-12.6,23.5c-6.4,6.4-14.6,10.8-23.5,12.6c-8.9,1.8-18.2,0.9-26.5-2.6c-8.4-3.5-15.6-9.4-20.6-16.9
	c-5-7.6-7.7-16.4-7.7-25.5c0-6,1.2-12,3.5-17.6c2.3-5.6,5.7-10.6,10-14.9c4.3-4.3,9.3-7.7,14.9-10S157.4,0.8,163.4,0.8z M193.1,55.8
	V28.4c0-0.9-0.4-1.7-1-2.3c-0.6-0.6-1.5-1-2.3-1h-52.7c-0.9,0-1.7,0.3-2.3,1c-0.6,0.6-1,1.5-1,2.3v27.4c0,0.9,0.4,1.7,1,2.3
	c0.6,0.6,1.5,1,2.3,1h19.7v14.6l10.5-14.5h22.5c0.4,0,0.9-0.1,1.3-0.3c0.4-0.2,0.8-0.4,1.1-0.7s0.6-0.7,0.7-1.1
	C193,56.7,193.1,56.3,193.1,55.8z"/>
<path class="st3" d="M193.1,28.4v27.5c0,0.4-0.1,0.9-0.2,1.3c-0.2,0.4-0.4,0.8-0.7,1.1s-0.7,0.6-1.1,0.7c-0.4,0.2-0.8,0.3-1.3,0.3
	h-22.5l-10.5,14.5V59.2h-19.7c-0.4,0-0.9-0.1-1.3-0.3c-0.4-0.2-0.8-0.4-1.1-0.7c-0.3-0.3-0.6-0.7-0.7-1.1c-0.2-0.4-0.3-0.8-0.3-1.3
	V28.4c0-0.9,0.4-1.7,1-2.3c0.6-0.6,1.5-1,2.3-1h52.7c0.4,0,0.9,0.1,1.3,0.2c0.4,0.2,0.8,0.4,1.1,0.7c0.3,0.3,0.6,0.7,0.7,1.1
	S193.1,28,193.1,28.4z"/>
<path d="M156.7,74L156.7,74c-0.1,0-0.2,0-0.2-0.1c0,0-0.1-0.1-0.1-0.2V59.4h-19.4c-1,0-1.9-0.4-2.5-1.1c-0.7-0.7-1.1-1.6-1.1-2.5
	V28.4c0-1,0.4-1.9,1.1-2.5c0.7-0.7,1.6-1.1,2.5-1.1h52.7c0.5,0,0.9,0.1,1.4,0.3c0.4,0.2,0.8,0.4,1.2,0.8c0.3,0.3,0.6,0.7,0.8,1.2
	c0.2,0.4,0.3,0.9,0.3,1.4v27.5c0,0.5-0.1,0.9-0.3,1.4c-0.2,0.4-0.4,0.8-0.8,1.2c-0.3,0.3-0.7,0.6-1.2,0.8c-0.4,0.2-0.9,0.3-1.4,0.3
	h-22.4l-10.4,14.4c0,0,0,0.1-0.1,0.1C156.8,74,156.7,74,156.7,74z M137.1,25.4c-0.8,0-1.6,0.3-2.2,0.9c-0.6,0.6-0.9,1.3-0.9,2.2
	v27.5c0,0.8,0.3,1.6,0.9,2.1c0.6,0.6,1.3,0.9,2.1,0.9h19.6c0.1,0,0.1,0,0.2,0.1C157,59,157,59,157,59.1v13.7L167,59
	c0,0,0.1-0.1,0.1-0.1c0,0,0.1,0,0.1,0h22.5c0.8,0,1.6-0.3,2.1-0.9c0.6-0.6,0.9-1.3,0.9-2.1V28.4c0-0.8-0.3-1.6-0.9-2.2
	c-0.6-0.6-1.3-0.9-2.2-0.9H137.1z"/>
<path d="M163.4,92.9c-9.1,0-18.1-2.7-25.7-7.8c-7.6-5.1-13.5-12.3-17-20.7c-3.5-8.4-4.4-17.7-2.6-26.7c1.8-9,6.2-17.2,12.7-23.7
	c6.5-6.5,14.7-10.9,23.7-12.6c9-1.8,18.3-0.9,26.7,2.6c8.4,3.5,15.7,9.4,20.7,17c5.1,7.6,7.8,16.5,7.8,25.7c0,12.3-4.9,24-13.6,32.7
	S175.6,92.9,163.4,92.9z M163.4,1.1c-9,0-17.9,2.7-25.4,7.7c-7.5,5-13.4,12.2-16.8,20.5c-3.5,8.3-4.4,17.5-2.6,26.4
	c1.8,8.9,6.1,17,12.5,23.4c6.4,6.4,14.5,10.7,23.4,12.5c8.9,1.8,18,0.9,26.4-2.6c8.3-3.5,15.5-9.3,20.5-16.8
	c5-7.5,7.7-16.3,7.7-25.4c0-12.1-4.8-23.7-13.4-32.3C187.1,5.9,175.5,1.1,163.4,1.1z"/>
</svg>
